<?xml version="1.0" encoding="utf-8"?>
<svg version="1.1" xmlns:xlink="http://www.w3.org/1999/xlink" width="24px" height="20px" xmlns="http://www.w3.org/2000/svg">
  <g transform="matrix(1 0 0 1 -13 -15 )">
    <path d="M 7.757 14.8280000058325  L 12 10.5860000106161  L 16.243 14.8280000058324  L 14.828 16.2430000042368  L 13 14.4150000062982  L 13 20  L 11 20  L 11 14.4130000063004  L 9.172 16.2430000042368  L 7.757 14.8280000058325  Z M 5.046 6.19400001556899  C 5.45526185684472 2.66325695553414  8.44561654130242 -0.000283006307036415  12 0  C 15.5542112548233 0.000169242945947105  18.5443087476517 2.66348012153284  18.954 6.19400001556899  C 21.3468943749885 6.84655130907842  23.0069703931201 9.0199571729585  23.0069703931201 11.5002326954757  C 23.0069703931201 14.3463586946421  20.8356210886641 16.7223508200445  18.001 16.9780000034079  L 18.001 14.9640000056791  C 19.7253370278319 14.7177409840086  21.0061726261705 13.2409885837689  21.0061726261705 11.4991557316846  C 21.0061726261705 9.56615910945662  19.4391692505783 7.9991557356315  17.5061726261705 7.9991557356315  C 17.299231599172 7.9991557356315  17.0926983038002 8.01750906005689  16.889 8.05400001347147  C 16.96312496589 7.7089059543056  17.0005 7.35693293598743  17.0005 7.00396775324644  C 17.0005 4.24254400720653  14.761923749154 2.00396775888493  12.0005 2.00396775888493  C 9.23907625084603 2.00396775888493  7.0005 4.24254400720653  7.0005 7.00396775324644  C 7.0005 7.35693293598743  7.03787503410997 7.7089059543056  7.112 8.05400001347147  C 6.8989927536911 8.01399923412252  6.68273059159297 7.99386915884256  6.466 7.99386915884256  C 4.53293110653878 7.99386915884256  2.96586914530328 9.56093111831089  2.96586914530328 11.4940000095922  C 2.96586914530328 13.1779454322814  4.16498408743489 14.6232034131805  5.82 14.9340000057129  L 6 14.9640000056791  L 6 16.9780000034079  C 3.16505556980652 16.7227138134403  0.993277972586041 14.3465804140539  0.993277972586041 11.5001649589689  C 0.993277972586041 9.01998506464488  2.6532284294057 6.84663814813369  5.046 6.19400001556899  Z " fill-rule="nonzero" fill="#ffffff" stroke="none" transform="matrix(1 0 0 1 13 15 )" />
  </g>
</svg>