<?xml version="1.0" encoding="utf-8"?>
<svg version="1.1" xmlns:xlink="http://www.w3.org/1999/xlink" width="18px" height="19px" xmlns="http://www.w3.org/2000/svg">
  <g transform="matrix(1 0 0 1 -16 -16 )">
    <path d="M 2 7.329  L 2 9.5  C 2 9.813  2.461 10.358  3.53 10.893  C 4.914 11.585  6.877 12  9 12  C 11.123 12  13.086 11.585  14.47 10.893  C 15.539 10.358  16 9.813  16 9.5  L 16 7.329  C 14.35 8.349  11.827 9  9 9  C 6.173 9  3.65 8.348  2 7.329  Z M 16 14.5  L 16 12.329  C 14.35 13.349  11.827 14  9 14  C 6.173 14  3.65 13.348  2 12.329  L 2 14.5  C 2 14.813  2.461 15.358  3.53 15.893  C 4.914 16.585  6.877 17  9 17  C 11.123 17  13.086 16.585  14.47 15.893  C 15.539 15.358  16 14.813  16 14.5  Z M 9 19  C 4.03 19  0 16.985  0 14.5  L 0 4.5  C 0 2.015  4.03 0  9 0  C 13.97 0  18 2.015  18 4.5  L 18 14.5  C 18 16.985  13.97 19  9 19  Z M 3.53 5.893  C 4.914 6.585  6.877 7  9 7  C 11.123 7  13.086 6.585  14.47 5.893  C 15.539 5.358  16 4.813  16 4.5  C 16 4.187  15.539 3.642  14.47 3.107  C 13.086 2.415  11.123 2  9 2  C 6.877 2  4.914 2.415  3.53 3.107  C 2.461 3.642  2 4.187  2 4.5  C 2 4.813  2.461 5.358  3.53 5.893  Z " fill-rule="nonzero" fill="#ffffff" stroke="none" transform="matrix(1 0 0 1 16 16 )" />
  </g>
</svg>