<?xml version="1.0" encoding="utf-8"?>
<svg version="1.1" xmlns:xlink="http://www.w3.org/1999/xlink" width="24px" height="21px" xmlns="http://www.w3.org/2000/svg">
  <g transform="matrix(1 0 0 1 -13 -15 )">
    <path d="M 11 11.00000001074  L 13 11.00000001074  L 13 16.5850000047417  L 14.828 14.757000006705  L 16.243 16.1720000051853  L 12 20.4140000006294  L 7.757 16.1720000051853  L 9.172 14.757000006705  L 11 16.5850000047417  L 11 11.00000001074  Z M 5.046 6.19400001590161  C 5.45526185684472 2.66325695567715  8.44561654130242 -0.000283006307051612  12 0  C 15.5542112548233 0.000169242945956193  18.5443087476517 2.66348012167587  18.954 6.1940000159016  C 21.3468943749885 6.84655130944607  23.0069703931201 9.01995717344287  23.0069703931201 11.5002326960933  C 23.0069703931201 14.3463586954125  20.8356210886641 16.7223508209425  18.001 16.9780000043196  L 18.001 14.9640000064826  C 19.7253370278319 14.7177409847989  21.0061726261705 13.2409885844799  21.0061726261705 11.4991557323021  C 21.0061726261705 9.56615910997032  19.4391692505783 7.99915573606105  17.5061726261705 7.99915573606105  C 17.299231599172 7.99915573606105  17.0926983038002 8.01750906048743  16.889 8.05400001390397  C 16.96312496589 7.70890595471957  17.0005 7.3569329363825  17.0005 7.00396775362256  C 17.0005 4.24254400743435  14.761923749154 2.00396775899254  12.0005 2.00396775899254  C 9.23907625084603 2.00396775899254  7.0005 4.24254400743435  7.0005 7.00396775362256  C 7.0005 7.3569329363825  7.03787503410997 7.70890595471957  7.112 8.05400001390397  C 6.8989927536911 8.01399923455287  6.68273059159297 7.99386915927183  6.466 7.99386915927183  C 4.53293110653878 7.99386915927183  2.96586914530328 9.56093111882431  2.96586914530328 11.4940000102094  C 2.96586914530328 13.177945432989  4.16498408743489 14.6232034139658  5.82 14.9340000065149  L 6 14.9640000064827  L 6 16.9780000043196  C 3.16505556980652 16.7227138143383  0.993277972586041 14.3465804148243  0.993277972586041 11.5001649595864  C 0.993277972586041 9.01998506512925  2.6532284294057 6.84663814850135  5.046 6.19400001590161  Z " fill-rule="nonzero" fill="#ffffff" stroke="none" transform="matrix(1 0 0 1 13 15 )" />
  </g>
</svg>