<?xml version="1.0" encoding="utf-8"?>
<svg version="1.1" xmlns:xlink="http://www.w3.org/1999/xlink" width="20px" height="20px" xmlns="http://www.w3.org/2000/svg">
  <g transform="matrix(1 0 0 1 -15 -15 )">
    <path d="M 15 1  L 15 4  L 20 4  L 20 6  L 18 6  L 18 19  C 18 19.5522847498308  17.5522847498308 20  17 20  L 3 20  C 2.44771525016921 20  2 19.5522847498308  2 19  L 2 6  L 0 6  L 0 4  L 5 4  L 5 1  C 5 0.447715250169207  5.44771525016921 0  6 0  L 14 0  C 14.5522847498308 0  15 0.447715250169207  15 1  Z M 16 18  L 16 6  L 4 6  L 4 18  L 16 18  Z M 13.182 10.232  L 11.414 12  L 13.182 13.768  L 11.768 15.182  L 10 13.414  L 8.232 15.182  L 6.818 13.768  L 8.586 12  L 6.818 10.232  L 8.232 8.818  L 10 10.586  L 11.768 8.818  L 13.182 10.232  Z M 13 2  L 7 2  L 7 4  L 13 4  L 13 2  Z " fill-rule="nonzero" fill="#ffffff" stroke="none" transform="matrix(1 0 0 1 15 15 )" />
  </g>
</svg>