<?xml version="1.0" encoding="utf-8"?>
<svg version="1.1" xmlns:xlink="http://www.w3.org/1999/xlink" width="18px" height="21px" xmlns="http://www.w3.org/2000/svg">
  <g transform="matrix(1 0 0 1 -16 -15 )">
    <path d="M 1.009 4  L 4 4  L 4 1  C 4 0.447715250169207  4.44771525016921 0  5 0  L 17 0  C 17.5522847498308 0  18 0.447715250169207  18 1  L 18 15  C 18 15.5522847498308  17.5522847498308 16  17 16  L 14 16  L 14 19  C 14 19.552  13.55 20  12.993 20  L 1.007 20  C 1.00499986189573 20.0000119900177  1.00299969234651 20.000017985067  1.00099951830491 20.000017985067  C 0.448545945524058 20.000017985067  0.0005419756826055 19.5524533069325  0 19  L 0.00300000000000011 5  C 0.00300000000000011 4.448  0.453 4  1.009 4  Z M 12 6  L 2 6  L 2 18  L 12 18  L 12 6  Z M 6 2  L 6 4  L 14 4  L 14 14  L 16 14  L 16 2  L 6 2  Z M 4 11  L 4 9  L 10 9  L 10 11  L 4 11  Z M 4 15  L 4 13  L 10 13  L 10 15  L 4 15  Z " fill-rule="nonzero" fill="#ffffff" stroke="none" transform="matrix(1 0 0 1 16 15 )" />
  </g>
</svg>